<?xml version="1.0" encoding="UTF-8"?>
<svg width="1500px" height="919px" viewBox="0 0 1500 919" version="1.1" xmlns="http://www.w3.org/2000/svg" xmlns:xlink="http://www.w3.org/1999/xlink">
    <!-- Generator: Sketch Beta 46.2 (44496) - http://www.bohemiancoding.com/sketch -->
    <title>Group 20</title>
    <desc>Created with Sketch Beta.</desc>
    <defs>
        <radialGradient cx="50%" cy="21.9749374%" fx="50%" fy="21.9749374%" r="65.0436249%" gradientTransform="translate(0.500000,0.219749),scale(0.612667,1.000000),rotate(90.000000),translate(-0.500000,-0.219749)" id="radialGradient-1">
            <stop stop-color="#FFFFFF" offset="0%"></stop>
            <stop stop-color="#FFFFFF" offset="41.3026148%"></stop>
            <stop stop-color="#F6F7F9" offset="100%"></stop>
        </radialGradient>
        <rect id="path-2" x="0" y="0" width="1500" height="919"></rect>
    </defs>
    <g id="Page-1" stroke="none" stroke-width="1" fill="none" fill-rule="evenodd">
        <g id="Home">
            <g id="Group-20">
                <mask id="mask-3" fill="white">
                    <use xlink:href="#path-2"></use>
                </mask>
                <use id="Mask" fill="url(#radialGradient-1)" xlink:href="#path-2"></use>
                <g opacity="0.5" mask="url(#mask-3)">
                    <g transform="translate(0.000000, -9.000000)">
                        <g id="Group" stroke="none" stroke-width="1" fill="none" fill-rule="evenodd" transform="translate(120.000000, 109.000000)">
                            <circle id="Oval-Copy-2" fill="#BCBCBC" cx="1.5" cy="1.5" r="1.5"></circle>
                            <rect id="Rectangle" fill="#BCBCBC" x="1.5" y="0" width="31" height="3"></rect>
                            <circle id="Oval-Copy-3" fill="#BCBCBC" cx="32.5" cy="1.5" r="1.5"></circle>
                        </g>
                        <g id="Group-Copy-4" stroke="none" stroke-width="1" fill="none" fill-rule="evenodd" transform="translate(120.000000, 731.000000)">
                            <circle id="Oval-Copy-2" fill="#BCBCBC" cx="1.5" cy="1.5" r="1.5"></circle>
                            <rect id="Rectangle" fill="#BCBCBC" x="1.5" y="0" width="31" height="3"></rect>
                            <circle id="Oval-Copy-3" fill="#BCBCBC" cx="32.5" cy="1.5" r="1.5"></circle>
                        </g>
                        <g id="Group-Copy-2" stroke="none" stroke-width="1" fill="none" fill-rule="evenodd" transform="translate(1204.000000, 600.000000)">
                            <circle id="Oval-Copy-2" fill="#BCBCBC" cx="2" cy="1.5" r="1.5"></circle>
                            <rect id="Rectangle" fill="#BCBCBC" x="73" y="0" width="72.5" height="3"></rect>
                            <circle id="Oval-Copy-3" fill="#BCBCBC" cx="74.5" cy="1.5" r="1.5"></circle>
                        </g>
                        <g id="Group-Copy-5" stroke="none" stroke-width="1" fill="none" fill-rule="evenodd" transform="translate(1148.000000, 857.000000)">
                            <circle id="Oval-Copy-2" fill="#BCBCBC" cx="1.5" cy="1.5" r="1.5"></circle>
                            <rect id="Rectangle" fill="#BCBCBC" x="1.5" y="0" width="101" height="3"></rect>
                            <circle id="Oval-Copy-3" fill="#BCBCBC" cx="102.5" cy="1.5" r="1.5"></circle>
                        </g>
                        <g id="Group-Copy-3" stroke="none" stroke-width="1" fill="none" fill-rule="evenodd" transform="translate(0.000000, 254.000000)">
                            <circle id="Oval-Copy-2" fill="#F37046" cx="1.5" cy="1.5" r="1.5"></circle>
                            <rect id="Rectangle" fill="#F37046" x="1.5" y="0" width="101" height="3"></rect>
                            <circle id="Oval-Copy-3" fill="#F37046" cx="102.5" cy="1.5" r="1.5"></circle>
                        </g>
                        <g id="Group-Copy" stroke="none" stroke-width="1" fill="none" fill-rule="evenodd" transform="translate(1227.000000, 75.000000)">
                            <circle id="Oval-Copy-2" fill="#BCBCBC" cx="1.5" cy="1.5" r="1.5"></circle>
                            <rect id="Rectangle" fill="#BCBCBC" x="1.5" y="0" width="31" height="3"></rect>
                            <circle id="Oval-Copy-3" fill="#BCBCBC" cx="32.5" cy="1.5" r="1.5"></circle>
                        </g>
                        <circle id="Oval" stroke="none" fill="#BCBCBC" fill-rule="evenodd" cx="340.5" cy="200.5" r="5.5"></circle>
                        <circle id="Oval-Copy-20" stroke="none" fill="#BCBCBC" fill-rule="evenodd" cx="421.5" cy="822.5" r="5.5"></circle>
                        <circle id="Oval-Copy-13" stroke="none" fill="#BCBCBC" fill-rule="evenodd" cx="328" cy="44" r="4"></circle>
                        <circle id="Oval-Copy-21" stroke="none" fill="#BCBCBC" fill-rule="evenodd" cx="328" cy="666" r="4"></circle>
                        <circle id="Oval-Copy-7" stroke="none" fill="#BCBCBC" fill-rule="evenodd" cx="1447.5" cy="166.5" r="5.5"></circle>
                        <circle id="Oval-Copy-16" stroke="none" fill="#BCBCBC" fill-rule="evenodd" cx="259.5" cy="497.5" r="5.5"></circle>
                        <circle id="Oval-Copy-5" stroke="none" fill="#F37046" fill-rule="evenodd" cx="243.5" cy="469.5" r="5.5"></circle>
                        <circle id="Oval-Copy-8" stroke="none" fill="#BCBCBC" fill-rule="evenodd" cx="1343.5" cy="674.5" r="5.5"></circle>
                        <circle id="Oval-Copy" stroke="none" fill="#BCBCBC" fill-rule="evenodd" cx="283.5" cy="246.5" r="4.5"></circle>
                        <circle id="Oval-Copy-14" stroke="none" fill="#BCBCBC" fill-rule="evenodd" cx="1431.5" cy="427.5" r="4.5"></circle>
                        <circle id="Oval-Copy-9" stroke="none" fill="#F37046" fill-rule="evenodd" cx="1390.5" cy="212.5" r="4.5"></circle>
                        <circle id="Oval-Copy-12" stroke="none" fill="#BCBCBC" fill-rule="evenodd" cx="1305.5" cy="548.5" r="2.5"></circle>
                        <circle id="Oval-Copy-18" stroke="none" fill="#BCBCBC" fill-rule="evenodd" cx="1457.5" cy="775.5" r="4.5"></circle>
                        <circle id="Oval-Copy-15" stroke="none" fill="#BCBCBC" fill-rule="evenodd" cx="1298.5" cy="522.5" r="4.5"></circle>
                        <circle id="Oval-Copy-6" stroke="none" fill="#BCBCBC" fill-rule="evenodd" cx="237.5" cy="152.5" r="4.5"></circle>
                        <circle id="Oval-Copy-22" stroke="none" fill="#BCBCBC" fill-rule="evenodd" cx="49.5" cy="670.5" r="4.5"></circle>
                        <circle id="Oval-Copy-10" stroke="none" fill="#BCBCBC" fill-rule="evenodd" cx="1344.5" cy="118.5" r="4.5"></circle>
                        <circle id="Oval-Copy-17" stroke="none" fill="#BCBCBC" fill-rule="evenodd" cx="1036.5" cy="85.5" r="4.5"></circle>
                        <circle id="Oval-Copy-24" stroke="none" fill="#BCBCBC" fill-rule="evenodd" cx="1053.5" cy="103.5" r="2.5"></circle>
                        <circle id="Oval-Copy-19" stroke="none" fill="#BCBCBC" fill-rule="evenodd" cx="99.5" cy="552.5" r="4.5"></circle>
                        <circle id="Oval-Copy-23" stroke="none" fill="#BCBCBC" fill-rule="evenodd" cx="1234.5" cy="690.5" r="4.5"></circle>
                        <circle id="Oval-Copy-4" stroke="none" fill="#BCBCBC" fill-rule="evenodd" cx="114.5" cy="394.5" r="3.5"></circle>
                        <circle id="Oval-Copy-11" stroke="none" fill="#BCBCBC" fill-rule="evenodd" cx="1221.5" cy="360.5" r="3.5"></circle>
                        <g id="Group-2" stroke="none" stroke-width="1" fill="none" fill-rule="evenodd" transform="translate(211.000000, 157.000000)">
                            <g id="Group" transform="translate(0.000000, 8.000000)" fill="#BCBCBC">
                                <circle id="Oval-Copy-2" cx="3" cy="3" r="3"></circle>
                                <rect id="Rectangle" x="3" y="0" width="16" height="6"></rect>
                                <circle id="Oval-Copy-3" cx="19" cy="3" r="3"></circle>
                            </g>
                            <g id="Group" transform="translate(11.000000, 11.000000) rotate(-270.000000) translate(-11.000000, -11.000000) translate(0.000000, 8.000000)" fill="#BCBCBC">
                                <circle id="Oval-Copy-2" cx="3" cy="3" r="3"></circle>
                                <rect id="Rectangle" x="3" y="0" width="16" height="6"></rect>
                                <circle id="Oval-Copy-3" cx="19" cy="3" r="3"></circle>
                            </g>
                        </g>
                        <g id="Group-2-Copy-4" stroke="none" stroke-width="1" fill="none" fill-rule="evenodd" transform="translate(48.735441, 65.735441) rotate(17.000000) translate(-48.735441, -65.735441) translate(37.735441, 54.735441)">
                            <g id="Group" transform="translate(0.000000, 8.000000)" fill="#BCBCBC">
                                <circle id="Oval-Copy-2" cx="3" cy="3" r="3"></circle>
                                <rect id="Rectangle" x="3" y="0" width="16" height="6"></rect>
                                <circle id="Oval-Copy-3" cx="19" cy="3" r="3"></circle>
                            </g>
                            <g id="Group" transform="translate(11.000000, 11.000000) rotate(-270.000000) translate(-11.000000, -11.000000) translate(0.000000, 8.000000)" fill="#BCBCBC">
                                <circle id="Oval-Copy-2" cx="3" cy="3" r="3"></circle>
                                <rect id="Rectangle" x="3" y="0" width="16" height="6"></rect>
                                <circle id="Oval-Copy-3" cx="19" cy="3" r="3"></circle>
                            </g>
                        </g>
                        <g id="Group-2-Copy-7" stroke="none" stroke-width="1" fill="none" fill-rule="evenodd" transform="translate(44.735441, 816.735441) rotate(17.000000) translate(-44.735441, -816.735441) translate(33.735441, 805.735441)">
                            <g id="Group" transform="translate(0.000000, 8.000000)" fill="#F37046">
                                <circle id="Oval-Copy-2" cx="3" cy="3" r="3"></circle>
                                <rect id="Rectangle" x="3" y="0" width="16" height="6"></rect>
                                <circle id="Oval-Copy-3" cx="19" cy="3" r="3"></circle>
                            </g>
                            <g id="Group" transform="translate(11.000000, 11.000000) rotate(-270.000000) translate(-11.000000, -11.000000) translate(0.000000, 8.000000)" fill="#F37046">
                                <circle id="Oval-Copy-2" cx="3" cy="3" r="3"></circle>
                                <rect id="Rectangle" x="3" y="0" width="16" height="6"></rect>
                                <circle id="Oval-Copy-3" cx="19" cy="3" r="3"></circle>
                            </g>
                        </g>
                        <g id="Group-2-Copy-8" stroke="none" stroke-width="1" fill="none" fill-rule="evenodd" transform="translate(965.000000, 844.000000) rotate(17.000000) translate(-965.000000, -844.000000) translate(954.000000, 833.000000)">
                            <g id="Group" transform="translate(0.000000, 8.000000)" fill="#BCBCBC">
                                <circle id="Oval-Copy-2" cx="3" cy="3" r="3"></circle>
                                <rect id="Rectangle" x="3" y="0" width="16" height="6"></rect>
                                <circle id="Oval-Copy-3" cx="19" cy="3" r="3"></circle>
                            </g>
                            <g id="Group" transform="translate(11.000000, 11.000000) rotate(-270.000000) translate(-11.000000, -11.000000) translate(0.000000, 8.000000)" fill="#BCBCBC">
                                <circle id="Oval-Copy-2" cx="3" cy="3" r="3"></circle>
                                <rect id="Rectangle" x="3" y="0" width="16" height="6"></rect>
                                <circle id="Oval-Copy-3" cx="19" cy="3" r="3"></circle>
                            </g>
                        </g>
                        <g id="Group-2-Copy" stroke="none" stroke-width="1" fill="none" fill-rule="evenodd" transform="translate(1405.000000, 48.000000)">
                            <g id="Group" transform="translate(0.000000, 8.000000)" fill="#BCBCBC">
                                <circle id="Oval-Copy-2" cx="3" cy="3" r="3"></circle>
                                <rect id="Rectangle" x="3" y="0" width="16" height="6"></rect>
                                <circle id="Oval-Copy-3" cx="19" cy="3" r="3"></circle>
                            </g>
                            <g id="Group" transform="translate(11.000000, 11.000000) rotate(-270.000000) translate(-11.000000, -11.000000) translate(0.000000, 8.000000)" fill="#BCBCBC">
                                <circle id="Oval-Copy-2" cx="3" cy="3" r="3"></circle>
                                <rect id="Rectangle" x="3" y="0" width="16" height="6"></rect>
                                <circle id="Oval-Copy-3" cx="19" cy="3" r="3"></circle>
                            </g>
                        </g>
                        <g id="Group-2-Copy-6" stroke="none" stroke-width="1" fill="none" fill-rule="evenodd" transform="translate(863.000000, 15.000000) rotate(26.000000) translate(-863.000000, -15.000000) translate(852.000000, 4.000000)">
                            <g id="Group" transform="translate(0.000000, 8.000000)" fill="#BCBCBC">
                                <circle id="Oval-Copy-2" cx="3" cy="3" r="3"></circle>
                                <rect id="Rectangle" x="3" y="0" width="16" height="6"></rect>
                                <circle id="Oval-Copy-3" cx="19" cy="3" r="3"></circle>
                            </g>
                            <g id="Group" transform="translate(11.000000, 11.000000) rotate(-270.000000) translate(-11.000000, -11.000000) translate(0.000000, 8.000000)" fill="#BCBCBC">
                                <circle id="Oval-Copy-2" cx="3" cy="3" r="3"></circle>
                                <rect id="Rectangle" x="3" y="0" width="16" height="6"></rect>
                                <circle id="Oval-Copy-3" cx="19" cy="3" r="3"></circle>
                            </g>
                        </g>
                        <g id="Group-2-Copy-5" stroke="none" stroke-width="1" fill="none" fill-rule="evenodd" transform="translate(1448.000000, 860.000000)">
                            <g id="Group" transform="translate(0.000000, 8.000000)" fill="#BCBCBC">
                                <circle id="Oval-Copy-2" cx="3" cy="3" r="3"></circle>
                                <rect id="Rectangle" x="3" y="0" width="16" height="6"></rect>
                                <circle id="Oval-Copy-3" cx="19" cy="3" r="3"></circle>
                            </g>
                            <g id="Group" transform="translate(11.000000, 11.000000) rotate(-270.000000) translate(-11.000000, -11.000000) translate(0.000000, 8.000000)" fill="#BCBCBC">
                                <circle id="Oval-Copy-2" cx="3" cy="3" r="3"></circle>
                                <rect id="Rectangle" x="3" y="0" width="16" height="6"></rect>
                                <circle id="Oval-Copy-3" cx="19" cy="3" r="3"></circle>
                            </g>
                        </g>
                        <g id="Group-2-Copy-2" stroke="none" stroke-width="1" fill="none" fill-rule="evenodd" transform="translate(1404.159671, 305.159671) rotate(19.000000) translate(-1404.159671, -305.159671) translate(1390.659671, 291.659671)">
                            <g id="Group" transform="translate(0.000000, 10.000000)" fill="#BCBCBC">
                                <ellipse id="Oval-Copy-2" cx="3.68181818" cy="3.5" rx="3.68181818" ry="3.5"></ellipse>
                                <rect id="Rectangle" x="3.68181818" y="0" width="19.6363636" height="7"></rect>
                                <ellipse id="Oval-Copy-3" cx="23.3181818" cy="3.5" rx="3.68181818" ry="3.5"></ellipse>
                            </g>
                            <g id="Group" transform="translate(13.500000, 13.500000) rotate(-270.000000) translate(-13.500000, -13.500000) translate(0.000000, 10.000000)" fill="#BCBCBC">
                                <ellipse id="Oval-Copy-2" cx="3.68181818" cy="3.5" rx="3.68181818" ry="3.5"></ellipse>
                                <rect id="Rectangle" x="3.68181818" y="0" width="19.6363636" height="7"></rect>
                                <ellipse id="Oval-Copy-3" cx="23.3181818" cy="3.5" rx="3.68181818" ry="3.5"></ellipse>
                            </g>
                        </g>
                        <path d="M206,832 C209.041667,829.333333 215.125,829.333333 218.166667,832 C221.208333,834.666667 227.291667,834.666667 230.333333,832 C233.375,829.333333 239.458333,829.333333 242.5,832 C245.541667,834.666667 251.625,834.666667 254.666667,832 C257.708333,829.333333 263.791667,829.333333 266.833333,832 C269.875,834.666667 275.958333,834.666667 279,832" id="Page-1" stroke="#BCBCBC" stroke-width="2" fill="none" stroke-linecap="round"></path>
                        <path d="M133,42 C136,39.3333333 142,39.3333333 145,42 C148,44.6666667 154,44.6666667 157,42" id="Page-1-Copy-2" stroke="#F37046" stroke-width="2" fill="none" stroke-linecap="round"></path>
                        <path d="M459,79 C462,76.3333333 468,76.3333333 471,79 C474,81.6666667 480,81.6666667 483,79" id="Page-1-Copy-7" stroke="#BCBCBC" stroke-width="2" fill="none" stroke-linecap="round"></path>
                        <path d="M62,467 C65,464.333333 71,464.333333 74,467 C77,469.666667 83,469.666667 86,467" id="Page-1-Copy-5" stroke="#BCBCBC" stroke-width="2" fill="none" stroke-linecap="round"></path>
                        <path d="M1268,802 C1271,799.333333 1277,799.333333 1280,802 C1283,804.666667 1289,804.666667 1292,802" id="Page-1-Copy-6" stroke="#BCBCBC" stroke-width="2" fill="none" stroke-linecap="round"></path>
                        <path d="M1142,439 C1145,436.333333 1151,436.333333 1154,439 C1157,441.666667 1163,441.666667 1166,439" id="Page-1-Copy-3" stroke="#BCBCBC" stroke-width="2" fill="none" stroke-linecap="round"></path>
                        <path d="M1154,157 C1157.04167,154.333333 1163.125,154.333333 1166.16667,157 C1169.20833,159.666667 1175.29167,159.666667 1178.33333,157 C1181.375,154.333333 1187.45833,154.333333 1190.5,157 C1193.54167,159.666667 1199.625,159.666667 1202.66667,157 C1205.70833,154.333333 1211.79167,154.333333 1214.83333,157 C1217.875,159.666667 1223.95833,159.666667 1227,157" id="Page-1-Copy" stroke="#BCBCBC" stroke-width="2" fill="none" stroke-linecap="round"></path>
                        <path d="M1427,535 C1430.04167,532.333333 1436.125,532.333333 1439.16667,535 C1442.20833,537.666667 1448.29167,537.666667 1451.33333,535 C1454.375,532.333333 1460.45833,532.333333 1463.5,535 C1466.54167,537.666667 1472.625,537.666667 1475.66667,535 C1478.70833,532.333333 1484.79167,532.333333 1487.83333,535 C1490.875,537.666667 1496.95833,537.666667 1500,535" id="Page-1-Copy-4" stroke="#F37046" stroke-width="2" fill="none" stroke-linecap="round"></path>
                    </g>
                </g>
            </g>
        </g>
    </g>
</svg>