<?xml version="1.0" encoding="UTF-8"?>
<svg width="269px" height="47px" viewBox="0 0 269 47" version="1.1" xmlns="http://www.w3.org/2000/svg" xmlns:xlink="http://www.w3.org/1999/xlink">
    <!-- Generator: Sketch Beta 43 (38998) - http://www.bohemiancoding.com/sketch -->
    <title>flamelink_logo</title>
    <desc>Created with Sketch Beta.</desc>
    <defs></defs>
    <g id="Page-1" stroke="none" stroke-width="1" fill="none" fill-rule="evenodd">
        <g id="flamelink_logo" fill-rule="nonzero">
            <path d="M27.0396367,0.20640944 C26.6956209,-0.0688031468 26.3516052,0.0688031468 26.3516052,0.550425174 L26.4204084,31.5118412 C26.4204084,31.9934632 26.6956209,32.5438884 27.1084398,32.819101 L45.3412737,46.3045178 C45.6852894,46.5797304 46.0293052,46.4421241 46.0293052,45.960502 L45.960502,14.999086 C45.960502,14.517464 45.6852894,13.9670388 45.2724706,13.6918262 L27.0396367,0.20640944 Z" id="Shape" fill="#EF4438"></path>
            <path d="M13.9670388,0.20640944 C13.6230231,-0.0688031468 13.2790073,0.0688031468 13.2790073,0.550425174 L13.3478105,31.5118412 C13.3478105,31.9934632 13.6230231,32.5438884 14.0358419,32.819101 L32.2686758,46.3045178 C32.6126916,46.5797304 32.9567073,46.4421241 32.9567073,45.960502 L32.8879041,14.999086 C32.8879041,14.517464 32.6126916,13.9670388 32.1998727,13.6918262 L13.9670388,0.20640944 Z" id="Shape" fill="#F8981D"></path>
            <path d="M0.894440908,0.20640944 C0.550425174,-0.0688031468 0.20640944,0.0688031468 0.20640944,0.550425174 L0.275212587,31.5118412 C0.275212587,31.9934632 0.550425174,32.5438884 0.963244055,32.819101 L19.1960779,46.3045178 C19.5400937,46.5797304 19.8841094,46.4421241 19.8841094,45.960502 L19.8153063,14.999086 C19.8153063,14.517464 19.5400937,13.9670388 19.1272748,13.6918262 L0.894440908,0.20640944 Z" id="Shape" fill="#FEEA3A"></path>
            <path d="M19.8841094,34.0575576 L19.8153063,15.0678891 C19.8153063,14.5862671 19.5400937,14.0358419 19.1272748,13.7606294 L13.2790073,9.42603111 L13.2790073,12.5909759 L13.3478105,31.5806444 C13.3478105,32.0622664 13.6230231,32.6126916 14.0358419,32.8879041 L19.8841094,37.2225024 L19.8841094,34.0575576 Z" id="Shape" fill="#F9BF2C"></path>
            <path d="M32.9567073,34.0575576 L32.8879041,15.0678891 C32.8879041,14.5862671 32.6126916,14.0358419 32.1998727,13.7606294 L26.3516052,9.42603111 L26.3516052,12.5909759 L26.4204084,31.5806444 C26.4204084,32.0622664 26.6956209,32.6126916 27.1084398,32.8879041 L32.9567073,37.2225024 L32.9567073,34.0575576 Z" id="Shape" fill="#F37046"></path>
            <g id="Group" transform="translate(58.482675, 11.696535)" fill="#6D6E70">
                <polygon id="Shape" points="21.8794007 3.30255104 21.8105975 8.60039334 6.05467691 8.60039334 6.05467691 17.2007867 20.4345346 17.2007867 20.4345346 22.498629 6.05467691 22.498629 6.05467691 35.0896048 -1.96262444e-14 35.0896048 -1.96262444e-14 3.37135419"></polygon>
                <polygon id="Shape" points="30.961416 1.37606294 30.961416 35.0208017 25.0443454 35.0208017 25.0443454 1.37606294"></polygon>
                <path d="M51.5335569,35.0208017 L51.5335569,32.0622664 C49.8822814,34.1951639 47.1301555,35.2960143 43.6899982,35.2960143 C38.460959,35.2960143 35.2272111,32.0622664 35.2272111,27.7964713 C35.2272111,23.3242668 38.5297622,20.5721409 44.4468328,20.5033377 L51.5335569,20.5033377 L51.5335569,19.8841094 C51.5335569,17.0631804 49.675872,15.4119049 46.0293052,15.4119049 C43.7588013,15.4119049 41.2818881,16.1687395 38.8049748,17.6824087 L36.6720772,13.6230231 C40.1810377,11.6965349 42.8643604,10.5956846 47.336565,10.5956846 C53.6664545,10.5956846 57.2442181,13.8294325 57.3130212,19.1960779 L57.3818244,35.0896048 L51.5335569,35.0208017 Z M51.4647538,26.6268178 L51.4647538,24.4251171 L45.3412737,24.4251171 C42.2451321,24.4251171 40.7314629,25.319558 40.7314629,27.4524556 C40.7314629,29.51655 42.3827384,30.8238097 45.0660611,30.8238097 C48.4374153,30.7550066 51.120738,28.9661248 51.4647538,26.6268178 Z" id="Shape"></path>
                <path d="M103.20472,19.8841094 L103.20472,35.0208017 L97.2876495,35.0208017 L97.2876495,21.6041881 C97.2876495,18.1640307 95.2235551,16.0999363 91.9898072,16.0999363 C88.2056341,16.2375426 85.8663272,19.1272748 85.8663272,23.1178573 L85.8663272,35.0896048 L79.9492565,35.0896048 L79.9492565,21.6729912 C79.9492565,18.2328339 77.9539653,16.1687395 74.7202174,16.1687395 C70.8672412,16.3063458 68.5279342,19.1960779 68.5279342,23.1866605 L68.5279342,35.158408 L62.6108635,35.158408 L62.6108635,10.8708972 L68.5279342,10.8708972 L68.5279342,15.3431017 C70.1792097,12.1093538 73.2065481,10.6644877 77.0595244,10.5956846 C81.3253195,10.5956846 84.2838548,12.7285821 85.3847051,16.3751489 C86.9671775,12.4533696 90.1321223,10.5956846 94.3979173,10.5956846 C99.8333659,10.5268815 103.20472,14.1046451 103.20472,19.8841094 Z" id="Shape"></path>
                <path d="M130.106751,24.9755423 L112.217932,24.9755423 C112.974767,28.4156996 115.589287,30.479794 119.16705,30.479794 C121.643963,30.479794 123.98327,29.51655 125.703349,27.7276681 L128.868294,31.0302192 C126.460184,33.6447388 122.951223,35.2272111 118.685428,35.2272111 C111.185885,35.2272111 106.232059,30.2733846 106.232059,22.9114479 C106.232059,15.5495112 111.323491,10.5268815 118.547822,10.5268815 C127.079412,10.5956846 130.725979,16.1687395 130.106751,24.9755423 Z M124.808908,20.9849598 C124.671302,17.4071961 122.263192,15.1366923 118.616625,15.1366923 C115.107665,15.1366923 112.699554,17.4071961 112.149129,20.9849598 L124.808908,20.9849598 Z" id="Shape"></path>
                <polygon id="Shape" points="140.014404 1.37606294 140.014404 35.0208017 134.097333 35.0208017 134.097333 1.37606294"></polygon>
                <path d="M152.330167,3.78417307 C152.330167,5.71066118 151.022907,7.01792097 149.165222,7.01792097 C147.307537,7.01792097 146.000277,5.64185803 146.000277,3.78417307 C146.000277,1.85768496 147.307537,0.550425174 149.165222,0.550425174 C151.022907,0.550425174 152.330167,1.92648811 152.330167,3.78417307 Z M152.123757,10.7332909 L152.123757,35.0208017 L146.206687,35.0208017 L146.206687,10.7332909 L152.123757,10.7332909 Z" id="Shape"></path>
                <path d="M181.640307,19.8153063 L181.640307,34.9519986 L175.723237,34.9519986 L175.723237,21.5353849 C175.723237,18.1640307 173.659142,16.0311332 170.356591,16.0311332 C166.366009,16.0999363 164.026702,19.0584717 164.026702,23.0490542 L164.026702,34.9519986 L158.109631,34.9519986 L158.109631,10.6644877 L164.026702,10.6644877 L164.026702,15.2054954 C165.746781,11.9717475 168.774119,10.4580783 172.764702,10.4580783 C178.268953,10.5268815 181.640307,14.1046451 181.640307,19.8153063 Z" id="Shape"></path>
                <polygon id="Shape" points="196.777 24.356314 193.06163 28.2780933 193.06163 35.0208017 187.144559 35.0208017 187.144559 1.37606294 193.06163 1.37606294 193.06163 20.8473535 203.038086 10.802094 209.849598 10.802094 200.905189 20.159322 210.400023 35.0208017 203.382102 35.0208017"></polygon>
            </g>
        </g>
    </g>
</svg>